<?xml version="1.0" standalone="no"?>
<!DOCTYPE svg PUBLIC "-//W3C//DTD SVG 20010904//EN"
 "http://www.w3.org/TR/2001/REC-SVG-20010904/DTD/svg10.dtd">
<svg version="1.0" xmlns="http://www.w3.org/2000/svg"
 width="200.000000pt" height="200.000000pt" viewBox="0 0 200.000000 200.000000"
 preserveAspectRatio="xMidYMid meet">

<g transform="translate(0.000000,200.000000) scale(0.100000,-0.100000)"
fill="#000000" stroke="none">
<path d="M1171 1803 c-67 -33 -94 -115 -62 -187 24 -54 57 -78 119 -83 154
-13 211 200 72 269 -44 22 -85 22 -129 1z"/>
<path d="M895 1310 c-176 -99 -322 -185 -324 -191 -8 -24 33 -142 69 -197 20
-31 85 -102 144 -156 59 -54 114 -112 121 -127 35 -68 3 -139 -62 -139 -76 0
-95 34 -96 176 l-1 104 -117 0 -117 0 5 -132 c7 -155 24 -213 83 -280 83 -95
249 -132 361 -81 60 27 123 84 157 142 24 42 27 55 27 146 0 92 -3 106 -31
165 -33 69 -85 127 -198 224 -105 91 -129 166 -83 256 48 96 187 120 265 47
13 -12 34 -40 45 -62 21 -39 22 -53 27 -486 l5 -446 117 66 117 66 -5 295 c-9
477 -16 568 -49 635 -24 50 -115 155 -133 155 -4 0 -151 -81 -327 -180z"/>
</g>
</svg>
